<svg xmlns="http://www.w3.org/2000/svg" xmlns:xlink="http://www.w3.org/1999/xlink" width="522.008" height="340.912" viewBox="0 0 522.008 340.912"><defs><style>.a{fill:url(#a);}.b{fill:url(#b);}.c{fill:#fff;}.d{fill:#ccdeff;}.e{fill:#cfe0ff;}.f{fill:#eef5ff;}.g{fill:url(#c);}.h{fill:url(#d);}.i{fill:#b9cfff;}.j{fill:url(#e);}.k{fill:url(#f);}.l{fill:#f37c6a;}.m{fill:#f7cf06;}.n{fill:#4fdc6f;}.o{fill:#fdbd8a;}.p{fill:#fda674;}.q{fill:url(#g);}.r{fill:url(#h);}.s{fill:#f99564;}.t{fill:url(#i);}.u{fill:url(#j);}.v{fill:url(#k);}.w{fill:url(#l);}.x{fill:#dde3f0;}.y{fill:url(#m);}.z{fill:url(#n);}.aa{fill:url(#o);}.ab{fill:url(#p);}.ac{fill:url(#q);}.ad,.ar,.as{stroke:rgba(0,0,0,0);}.ad{fill:url(#r);}.ae{fill:url(#s);}.af{fill:rgba(255,255,255,0.07);}.ag,.ah,.ax,.ay{fill:none;}.ag,.ax{stroke:#dde3f0;}.ag,.ah{stroke-width:2px;}.ah,.ay{stroke:#b9ceff;}.ai{fill:#b9ceff;}.aj{fill:#0052e0;opacity:0.1;}.ak{opacity:0.996;fill:url(#t);}.al{fill:#766de8;}.am{fill:url(#u);}.an{fill:url(#v);}.ao{fill:url(#w);}.ap{fill:url(#x);}.aq{fill:url(#y);}.ar{fill:url(#z);}.as{fill:url(#aa);}.at{fill:#f07379;}.au{fill:#4fceff;}.av{fill:#387dff;}.aw{fill:#6aea87;}.az{fill:url(#ad);}.ba{fill:url(#ae);}.bb{fill:url(#af);}.bc{fill:url(#ag);}.bd{fill:url(#ah);}</style><linearGradient id="a" x1="0.38" y1="1" x2="0.383" y2="0.096" gradientUnits="objectBoundingBox"><stop offset="0" stop-color="#b0cfff"/><stop offset="1" stop-color="#83b3ff"/></linearGradient><linearGradient id="b" x1="-2.277" y1="2.874" x2="-2.277" y2="2.878" gradientUnits="objectBoundingBox"><stop offset="0.049" stop-color="#abc8ff"/><stop offset="1" stop-color="#dbe8ff"/></linearGradient><linearGradient id="c" x1="-13.369" y1="29.077" x2="-13.369" y2="29.12" gradientUnits="objectBoundingBox"><stop offset="0" stop-color="#cedfff"/><stop offset="1" stop-color="#e8f0ff"/></linearGradient><linearGradient id="d" x1="-11.334" y1="29.734" x2="-11.333" y2="29.728" gradientUnits="objectBoundingBox"><stop offset="0" stop-color="#e8f0ff"/><stop offset="1" stop-color="#cedfff"/></linearGradient><linearGradient id="e" x1="-9.197" y1="3.454" x2="-9.194" y2="3.451" xlink:href="#a"/><linearGradient id="f" x1="-19.313" y1="83.752" x2="-19.263" y2="83.693" xlink:href="#a"/><linearGradient id="g" x1="-28.972" y1="17.231" x2="-28.999" y2="17.22" gradientUnits="objectBoundingBox"><stop offset="0" stop-color="#fed8b9"/><stop offset="1" stop-color="#fdbd8a"/></linearGradient><linearGradient id="h" x1="-21.804" y1="16.457" x2="-21.772" y2="16.457" gradientUnits="objectBoundingBox"><stop offset="0" stop-color="#bf5055"/><stop offset="1" stop-color="#ea6a4d"/></linearGradient><linearGradient id="i" x1="-53.435" y1="106.459" x2="-53.394" y2="106.376" xlink:href="#g"/><linearGradient id="j" x1="-20.355" y1="8.365" x2="-20.323" y2="8.365" gradientUnits="objectBoundingBox"><stop offset="0" stop-color="#5690ff"/><stop offset="1" stop-color="#387dff"/></linearGradient><linearGradient id="k" x1="-9.483" y1="17.633" x2="-9.484" y2="17.639" gradientUnits="objectBoundingBox"><stop offset="0" stop-color="#2d3651"/><stop offset="1" stop-color="#545f7e"/></linearGradient><linearGradient id="l" x1="0.539" y1="0.852" x2="0.364" y2="-0.294" xlink:href="#k"/><linearGradient id="m" x1="-60.879" y1="52.865" x2="-60.807" y2="52.865" gradientUnits="objectBoundingBox"><stop offset="0" stop-color="#545f7e"/><stop offset="1" stop-color="#2d3651"/></linearGradient><linearGradient id="n" y1="0.688" x2="1.201" y2="0.362" gradientUnits="objectBoundingBox"><stop offset="0" stop-color="#fdbd8a"/><stop offset="1" stop-color="#fed8b9"/></linearGradient><linearGradient id="o" x1="-27.294" y1="30.137" x2="-27.293" y2="30.122" xlink:href="#m"/><linearGradient id="p" x1="-39.059" y1="15.336" x2="-39.046" y2="15.325" xlink:href="#g"/><linearGradient id="q" x1="-39.492" y1="22.155" x2="-39.463" y2="22.13" xlink:href="#g"/><linearGradient id="r" x2="1.561" y2="1.197" gradientUnits="objectBoundingBox"><stop offset="0" stop-color="#387dff"/><stop offset="1" stop-color="#766de8"/></linearGradient><linearGradient id="s" x1="0.5" x2="0.5" y2="1" gradientUnits="objectBoundingBox"><stop offset="0" stop-color="#98bcff"/><stop offset="1" stop-color="#5590ff"/></linearGradient><linearGradient id="t" x1="3.865" y1="1.667" x2="3.859" y2="-0.565" gradientUnits="objectBoundingBox"><stop offset="0" stop-color="#377dff"/><stop offset="1" stop-color="#0052e0"/></linearGradient><linearGradient id="u" x1="1.387" y1="0.938" x2="0.111" y2="0.047" xlink:href="#r"/><linearGradient id="v" x1="-30.391" y1="14.729" x2="-30.38" y2="14.709" gradientUnits="objectBoundingBox"><stop offset="0" stop-color="#51daff"/><stop offset="1" stop-color="#49baff"/></linearGradient><linearGradient id="w" x1="-15.508" y1="30.047" x2="-15.491" y2="30.047" xlink:href="#g"/><linearGradient id="x" x1="-42.297" y1="22.353" x2="-42.273" y2="22.303" xlink:href="#v"/><linearGradient id="y" x1="-33.999" y1="11.183" x2="-33.994" y2="11.171" xlink:href="#g"/><linearGradient id="z" x1="-33.62" y1="19.803" x2="-33.611" y2="19.793" xlink:href="#g"/><linearGradient id="aa" x1="0.5" y1="0.031" x2="0.79" y2="0.815" gradientUnits="objectBoundingBox"><stop offset="0" stop-color="#e05c68"/><stop offset="1" stop-color="#f88f57"/></linearGradient><linearGradient id="ad" x1="-55.996" y1="102.763" x2="-55.952" y2="102.673" xlink:href="#g"/><linearGradient id="ae" x1="-22.907" y1="13.578" x2="-22.901" y2="13.566" xlink:href="#g"/><linearGradient id="af" x1="0.861" y1="0.217" x2="0.534" y2="1.101" xlink:href="#j"/><linearGradient id="ag" x1="-56.141" y1="103.617" x2="-56.096" y2="103.527" xlink:href="#g"/><linearGradient id="ah" x1="-56.016" y1="105.331" x2="-55.971" y2="105.241" xlink:href="#g"/></defs><g transform="translate(-140.63 -3197.5)"><path class="a" d="M334.137,333.334H321.831L312.08,291.5H256.758l-9.751,41.835H234.7a3.381,3.381,0,1,0,0,6.763h99.436a3.381,3.381,0,1,0,0-6.763Z" transform="translate(128.984 3196.545)"/><path class="b" d="M437.56,296.777H130.521a14.85,14.85,0,0,1-14.862-14.863V80.8a14.85,14.85,0,0,1,14.862-14.862H437.56A14.851,14.851,0,0,1,452.423,80.8V281.954A14.843,14.843,0,0,1,437.56,296.777Z" transform="translate(129.362 3197.284)"/><rect class="c" width="311.242" height="174.821" transform="translate(257.689 3277.332)"/><path class="d" d="M452.423,267.2H115.7v23.867a7.241,7.241,0,0,0,7.235,7.234H445.228a7.24,7.24,0,0,0,7.234-7.234l-.039-23.867Z" transform="translate(129.362 3196.625)"/><rect class="e" width="48.874" height="159.649" transform="translate(258.036 3292.081)"/><rect class="f" width="310.735" height="31.848" transform="translate(258.036 3292.081)"/><path class="c" d="M432.255,80.138H135.95a7.241,7.241,0,0,0-7.234,7.234v7.471H439.49V87.372A7.241,7.241,0,0,0,432.255,80.138Z" transform="translate(129.319 3197.237)"/><path class="g" d="M552.362,46.532a14.9,14.9,0,0,0-9.948,3.814,23.389,23.389,0,0,0-41.638.786,11.823,11.823,0,0,0-17.85,10.184h84.3A14.81,14.81,0,0,0,552.362,46.532Z" transform="translate(56.346 3183.986)"/><path class="h" d="M134.992,29.905A23.91,23.91,0,0,0,88.95,20.862a14.034,14.034,0,0,0-2.242-.157,16.465,16.465,0,0,0-14.783,9.162h63.067v.039Z" transform="translate(129.506 3197.48)"/><path class="i" d="M168.522,142.263h-32.4a2.593,2.593,0,0,1-2.594-2.6h0a2.592,2.592,0,0,1,2.594-2.6h32.4a2.593,2.593,0,0,1,2.6,2.6h0A2.544,2.544,0,0,1,168.522,142.263Zm0,13.172h-32.4a2.593,2.593,0,0,1-2.594-2.6h0a2.592,2.592,0,0,1,2.594-2.6h32.4a2.593,2.593,0,0,1,2.6,2.6h0A2.568,2.568,0,0,1,168.522,155.435Zm0,13.172h-32.4a2.593,2.593,0,0,1-2.594-2.6h0a2.592,2.592,0,0,1,2.594-2.6h32.4a2.593,2.593,0,0,1,2.6,2.6h0A2.568,2.568,0,0,1,168.522,168.607Zm0,13.132h-32.4a2.592,2.592,0,0,1-2.594-2.594h0a2.592,2.592,0,0,1,2.594-2.6h32.4a2.592,2.592,0,0,1,2.6,2.6h0A2.544,2.544,0,0,1,168.522,181.738Zm0,13.172h-32.4a2.592,2.592,0,0,1-2.594-2.594h0a2.592,2.592,0,0,1,2.594-2.6h32.4a2.592,2.592,0,0,1,2.6,2.6h0A2.568,2.568,0,0,1,168.522,194.91Zm-6.448-90.393H139.9a6.326,6.326,0,0,0-6.33,6.33h0a6.326,6.326,0,0,0,6.33,6.33h22.176a6.326,6.326,0,0,0,6.33-6.33h0A6.326,6.326,0,0,0,162.074,104.517ZM426.531,106.8H387.566a4.044,4.044,0,0,0-4.05,4.05h0a4.044,4.044,0,0,0,4.05,4.05h38.965a4.044,4.044,0,0,0,4.05-4.05h0A4.018,4.018,0,0,0,426.531,106.8Z" transform="translate(129.304 3197.158)"/><path class="f" d="M341,229.5H193.317a4.38,4.38,0,0,1-4.364-4.365h0a4.38,4.38,0,0,1,4.364-4.365H341a4.381,4.381,0,0,1,4.365,4.365h0A4.355,4.355,0,0,1,341,229.5Zm0,15.885H193.317a4.38,4.38,0,0,1-4.364-4.365h0a4.379,4.379,0,0,1,4.364-4.365H341a4.38,4.38,0,0,1,4.365,4.365h0A4.381,4.381,0,0,1,341,245.383Z" transform="translate(129.122 3196.778)"/><path class="j" d="M149.556,339.853H91.679a10.538,10.538,0,0,1-10.537-10.537V191.464a10.538,10.538,0,0,1,10.537-10.537h57.877a10.538,10.538,0,0,1,10.537,10.537V329.316A10.538,10.538,0,0,1,149.556,339.853Z" transform="translate(129.475 3196.908)"/><path class="c" d="M148.587,335.425H92.676a7.249,7.249,0,0,1-7.274-7.234V192.935a7.249,7.249,0,0,1,7.274-7.235h55.95a7.249,7.249,0,0,1,7.274,7.235V328.23A7.275,7.275,0,0,1,148.587,335.425Z" transform="translate(129.461 3196.892)"/><path class="f" d="M148.4,309.344H93a3.775,3.775,0,0,1-3.775-3.775h0A3.775,3.775,0,0,1,93,301.795h55.4a3.775,3.775,0,0,1,3.775,3.775h0A3.775,3.775,0,0,1,148.4,309.344Zm0,13.762H93a3.775,3.775,0,0,1-3.775-3.775h0A3.775,3.775,0,0,1,93,315.557h55.4a3.775,3.775,0,0,1,3.775,3.775h0A3.775,3.775,0,0,1,148.4,323.106Z" transform="translate(129.449 3196.512)"/><path class="c" d="M148.705,185.542H92.637a7.241,7.241,0,0,0-7.235,7.235v7.47h70.5v-7.47A7.208,7.208,0,0,0,148.705,185.542Z" transform="translate(129.461 3196.893)"/><path class="k" d="M135.744,191.2H105.783a4.128,4.128,0,0,1-4.128-4.128v-1.69h38.217v1.69A4.128,4.128,0,0,1,135.744,191.2Z" transform="translate(129.408 3196.893)"/><circle class="l" cx="3.617" cy="3.617" r="3.617" transform="translate(265.073 3281.897)"/><circle class="m" cx="3.617" cy="3.617" r="3.617" transform="translate(277.302 3281.897)"/><circle class="n" cx="3.617" cy="3.617" r="3.617" transform="translate(289.569 3281.897)"/><rect class="e" width="70.499" height="23.434" transform="translate(214.903 3420.496)"/><rect class="f" width="70.499" height="23.434" transform="translate(214.903 3397.062)"/><path class="i" d="M135.745,231.57H105.784a3.793,3.793,0,0,0-3.814,3.813h0a3.794,3.794,0,0,0,3.814,3.814h29.961a3.793,3.793,0,0,0,3.813-3.814h0A3.817,3.817,0,0,0,135.745,231.57Zm-3.028-26.462H108.773a6.847,6.847,0,0,0-6.842,6.842h0a6.847,6.847,0,0,0,6.842,6.842h23.944a6.846,6.846,0,0,0,6.842-6.842h0A6.822,6.822,0,0,0,132.717,205.108Z" transform="translate(129.407 3196.829)"/><path class="o" d="M63.922,258.5l-2.281,3.342-1.3,1.887-5.032,7.392-9.751-6.448,6.88-10.262,1.14-1.73,2.634,1.494Z" transform="translate(129.592 3196.673)"/><path class="p" d="M72.409,251.873c-1.651,3.539-2.044,8.336-6.015,8.454l-.2,1.258a9.931,9.931,0,0,1-3.067.354,9.193,9.193,0,0,1-1.494-.118l-1.3,1.887a10.064,10.064,0,0,1-3.106-3.46,10.362,10.362,0,0,1-.786-1.927,9.843,9.843,0,0,1-.275-4.168,12.7,12.7,0,0,1,.471-1.848,9.441,9.441,0,0,1,1.062-2.083,10.294,10.294,0,0,1,1.966-2.163c.2-.157.354-.275.551-.433a15.072,15.072,0,0,1,1.337-.786,10.96,10.96,0,0,1,1.887-.708,9.744,9.744,0,0,1,1.14-.2,9.025,9.025,0,0,1,2.713.039c.394.079.786.157,1.18.275C72.37,247.313,71.9,248.1,72.409,251.873Z" transform="translate(129.557 3196.695)"/><path class="q" d="M75.029,245.228v.157l-.157,5.072a11.548,11.548,0,0,1-8.689,11.049,9.958,9.958,0,0,1-3.067.354,9.188,9.188,0,0,1-1.494-.119,11.84,11.84,0,0,1-4.365-1.573,11.624,11.624,0,0,1-4.836-5.858,11.469,11.469,0,0,1-.669-2.832c-.039-.432-.078-.9-.078-1.337l.157-5.072a11.592,11.592,0,0,1,5.82-9.869c.118-.079.275-.157.393-.236a10.883,10.883,0,0,1,3.342-1.14c.118,0,.2-.039.315-.039l1.062-.118a5.167,5.167,0,0,1,.786,0,12.1,12.1,0,0,1,2.083.2,12.558,12.558,0,0,1,3.224,1.14,11.6,11.6,0,0,1,2.831,2.123,12.081,12.081,0,0,1,2.557,3.971A11.347,11.347,0,0,1,75.029,245.228Z" transform="translate(129.572 3196.735)"/><path class="r" d="M80.927,229.814a9.751,9.751,0,0,0,.079-1.061,7.5,7.5,0,0,0-14.9-1.258,4.016,4.016,0,0,0-2.517-.905,3.945,3.945,0,0,0-3.932,3.932v.2a2.805,2.805,0,0,0-2.477,2.791,2.624,2.624,0,0,0,.354,1.338,5.7,5.7,0,0,0-6.251,5.858l.433,10.774a8.6,8.6,0,0,0,8.3-3.5l.157.04a4.392,4.392,0,0,0,5.033-3.736l.156-1.062a4.532,4.532,0,0,0,1.967-2.988,5.5,5.5,0,0,0,3.223-1.415,6.871,6.871,0,1,0,10.381-9Z" transform="translate(129.573 3196.776)"/><circle class="o" cx="4.64" cy="4.64" r="4.64" transform="translate(184.549 3440.705)"/><path class="s" d="M59.759,251.6a1.518,1.518,0,0,1,1.023-2.752,1.452,1.452,0,0,1,.983.629,3.846,3.846,0,0,0-.9-3.5l.314-.275a4.338,4.338,0,0,1,.786,4.64c-.039.079-.156.157-.235.118a.214.214,0,0,1-.157-.235.934.934,0,0,0-.786-.944,1.035,1.035,0,0,0-1.1.669,1.177,1.177,0,0,0,.394,1.3Z" transform="translate(129.547 3196.696)"/><path class="t" d="M85.045,267.819l-.511-1.966,11.127-1.494a1.746,1.746,0,0,1,1.73,1.73h0a1.745,1.745,0,0,1-1.73,1.729Z" transform="translate(129.464 3196.634)"/><path class="u" d="M61.469,312.3l-32.516-7.588s.51-14,5.544-25.753c5.347-12.5,15.255-22.805,15.255-22.805h0l11.756,9.555V312.3Z" transform="translate(129.646 3196.662)"/><g transform="translate(156.923 3501.257)"><path class="v" d="M92.732,341.051l-62.359-.786,4.168-11.245,56.776-10.537c5.5-.472,10.184,4.717,10.184,11.284h0C101.5,335.7,97.687,340.618,92.732,341.051Z" transform="translate(-27.281 -304.799)"/><path class="w" d="M89.459,337.9,38.187,327.755a12.513,12.513,0,0,1-8.532-6.173h0a18.435,18.435,0,0,1-.669-16.829h0l65.741,14.155a9.832,9.832,0,0,1,6.605,9.318h0A9.826,9.826,0,0,1,89.459,337.9Z" transform="translate(-27.271 -304.754)"/></g><g transform="translate(140.838 3522.615)"><path class="n" d="M39.907,327.51,40.3,329a31.8,31.8,0,0,1,1.1,8.375h0l-12.779,3.775-7.194-.55-7.707.275a1.579,1.579,0,0,1-1.415-.748.531.531,0,0,1-.119-.2,1.671,1.671,0,0,1,.826-2.163l24.849-11.205a1.453,1.453,0,0,1,2.044.943Z" transform="translate(-11.137 -326.184)"/><path class="x" d="M11.241,339.856h0a1.251,1.251,0,0,0,1.69.669l26.3-11.875a1.276,1.276,0,0,0,.708-1.494h0a1.292,1.292,0,0,0-1.769-.864l-26.3,11.874A1.3,1.3,0,0,0,11.241,339.856Z" transform="translate(-11.134 -326.183)"/><path class="c" d="M21.257,341.9a2.705,2.705,0,0,1-.943-.2l.275-.669a1.717,1.717,0,0,0,2.005-.511l1.494-1.729.55.471L23.145,341A2.36,2.36,0,0,1,21.257,341.9Z" transform="translate(-11.164 -326.224)"/><path class="c" d="M23.7,341.9a2.711,2.711,0,0,1-.944-.2l.275-.669a1.717,1.717,0,0,0,2.005-.511l1.494-1.729.551.471L25.591,341A2.36,2.36,0,0,1,23.7,341.9Zm2.6.118a2.707,2.707,0,0,1-.944-.2l.275-.669a1.716,1.716,0,0,0,2.005-.51l1.494-1.73.55.471-1.494,1.73A2.358,2.358,0,0,1,26.3,342.02Z" transform="translate(-11.172 -326.224)"/><circle class="c" cx="2.044" cy="2.044" r="2.044" transform="translate(21.26 6.95)"/></g><g transform="translate(325.785 3207.732)"><path class="o" d="M222.73,56.255l4.216-27.2,14.57,2.259-4.216,27.2Z" transform="translate(-164.437 -10.328)"/><path class="p" d="M230.057,39.837a8.807,8.807,0,0,0,.236,3.813,9.018,9.018,0,0,0,7.234,6.37c.354.039.748.079,1.1.118l.786-5.623c3.617-.118,3.892-3.5,5.425-6.763-.471-3.46-.078-4.167-3.5-5.15a4.914,4.914,0,0,0-1.1-.236A8.93,8.93,0,0,0,230.057,39.837Z" transform="translate(-164.461 -10.338)"/><path class="y" d="M236.605,33.117l5.859.9a6.237,6.237,0,0,0,7.078-5.151l.9-5.858-11.992-1.848Z" transform="translate(-164.483 -10.302)"/><path class="z" d="M228.985,24.809l-1.927,12.346a6.611,6.611,0,0,0,3.146,6.723,5.454,5.454,0,0,0,2.4.826l3.7.55a9.95,9.95,0,0,0,1.494.119,8.141,8.141,0,0,0,7.038-4.6,10.261,10.261,0,0,0,.709-2.2l1.808-11.56a7.723,7.723,0,0,0-6.409-8.807l-2.359-.354A8.314,8.314,0,0,0,228.985,24.809Z" transform="translate(-164.451 -10.291)"/><path class="aa" d="M250.012,12.36l-12.9-2.005a6.861,6.861,0,0,0-7.353,4.05,7.233,7.233,0,0,0-4.8,5.741l-.825,5.269a7.23,7.23,0,0,0,6.055,8.3l.825-5.269a7.269,7.269,0,0,0,8.257-6.055,6.655,6.655,0,0,0,.079-1.533,11.948,11.948,0,0,1,8.651,4.128,6.429,6.429,0,0,0,7.313-5.347A6.327,6.327,0,0,0,250.012,12.36Z" transform="translate(-164.442 -10.267)"/><path class="o" d="M255.734,86.973h0a7.659,7.659,0,0,0,5.938-9.122l-3.736-17.693a7.659,7.659,0,0,0-9.122-5.938h0a7.658,7.658,0,0,0-5.936,9.122l3.735,17.693A7.719,7.719,0,0,0,255.734,86.973Z" transform="translate(-164.503 -10.41)"/><path class="ab" d="M200.017,92.341a7.582,7.582,0,0,0,8.926-6.015l.708-3.539,3.421-17.614,1.494-7.667a7.582,7.582,0,0,0-5.386-8.768c-.2-.04-.394-.119-.629-.157a4.53,4.53,0,0,0-1.023-.118H206.9a5.979,5.979,0,0,0-1.652.235,7.623,7.623,0,0,0-5.662,5.938l-2.123,10.93-3.5,17.929A7.63,7.63,0,0,0,200.017,92.341Z" transform="translate(-164.343 -10.392)"/><path class="ac" d="M209.336,108.6l-.2.079a7.215,7.215,0,0,1-8.846-4.286l-6.016-16.946c-1.533-3.853.865-5.661,4.8-6.959h0a7.177,7.177,0,0,1,8.965,4.128L213.9,98.972A7.154,7.154,0,0,1,209.336,108.6Z" transform="translate(-164.342 -10.495)"/><path class="o" d="M271.318,93.048h0a7.7,7.7,0,0,0-1.337-10.813l-10.576-8.217a7.7,7.7,0,0,0-10.812,1.337h0a7.7,7.7,0,0,0,1.337,10.812l10.537,8.218A7.745,7.745,0,0,0,271.318,93.048Z" transform="translate(-164.517 -10.47)"/><path class="o" d="M262.669,92.033l1.494-.471a2.637,2.637,0,0,0,1.73-3.3h0a2.637,2.637,0,0,0-3.3-1.729L261.1,87a2.637,2.637,0,0,0-1.73,3.3h0A2.638,2.638,0,0,0,262.669,92.033Z" transform="translate(-164.557 -10.516)"/><circle class="o" cx="4.64" cy="4.64" r="4.64" transform="translate(59.108 14.636)"/><path class="s" d="M228.358,32.505a1.615,1.615,0,0,1-.826-1.652,1.471,1.471,0,0,1,1.416-1.18,1.272,1.272,0,0,1,1.062.511,3.892,3.892,0,0,0-1.415-3.342l.275-.314a4.353,4.353,0,0,1,1.454,4.442.264.264,0,0,1-.235.157.186.186,0,0,1-.2-.2.934.934,0,0,0-.943-.826,1.047,1.047,0,0,0-.984.865,1.193,1.193,0,0,0,.59,1.219Z" transform="translate(-164.453 -10.32)"/><path class="ad" d="M0,25.4,4.168,11.6a12.584,12.584,0,0,1,2.358-4.4c4.135-4.992,10.142-6.7,18.687-7q.559-.06,1.13-.077L31.573,0l4.089,3.971C39.477,7.156,45.649,6.92,46.2,1.965a18.053,18.053,0,0,1,4.49,1.191C61.546,5.6,65.509,10.233,68.414,17.811s3.029,8.374,3.029,8.374L50.21,25.871l-.733-5.345H21.032l-1.608,8.058Z" transform="translate(28.361 35.2)"/><g transform="translate(0 110.488) rotate(-17)"><g transform="translate(0 0)"><rect class="ae" width="157.827" height="98.296" rx="5" transform="translate(0 0)"/><g transform="translate(23.308 1.105)"><path class="af" d="M0,98.3,47.942,0H84.9L36.962,98.3Z" transform="translate(0 0)"/><path class="af" d="M0,98.3,47.942,0H84.9L36.962,98.3Z" transform="translate(24.916 0)"/></g></g><g transform="translate(0 77.681)"><line class="ag" x2="157.461" transform="translate(0.366 0)"/><line class="ah" x2="29.028" transform="translate(0 0)"/></g><ellipse class="ai" cx="7.007" cy="7.007" rx="7.007" ry="7.007" transform="translate(22.257 70.952)"/><ellipse class="aj" cx="23.47" cy="23.47" rx="23.47" ry="23.47" transform="translate(54.452 22.025)"/><path class="ak" d="M0,1.863v13a1.875,1.875,0,0,0,2.827,1.7L14.135,9.965a1.791,1.791,0,0,0,0-3.2L2.827.167A2.008,2.008,0,0,0,0,1.863Z" transform="translate(72.92 36.914)"/></g><g transform="translate(52.802 87.36)"><path class="o" d="M220.815,103.71l1.494-.472a2.636,2.636,0,0,0,1.73-3.3h0a2.637,2.637,0,0,0-3.3-1.73l-1.494.472a2.636,2.636,0,0,0-1.729,3.3h0A2.67,2.67,0,0,0,220.815,103.71Z" transform="translate(-217.222 -97.915)"/><path class="o" d="M220.028,104.023a2.815,2.815,0,0,1-.825-5.5l1.494-.472a2.823,2.823,0,0,1,1.69,5.387l-1.494.471A3.5,3.5,0,0,1,220.028,104.023Zm1.494-5.74a2.493,2.493,0,0,0-.747.118l-1.494.472a2.447,2.447,0,0,0-1.613,3.067,2.48,2.48,0,0,0,3.067,1.612l1.494-.471a2.447,2.447,0,0,0,1.613-3.067A2.35,2.35,0,0,0,221.522,98.283Z" transform="translate(-217.222 -97.914)"/></g><path class="o" d="M219.2,99.659c-4.364-4.4-15.649,1.887-15.649,1.887m13.212,2.438c.943,3.224,3.185,5.9,4.836,4.325s-1.259-9.947-5.19-10.537c-3.067-.471-4.522,2.792-4.836,7Z" transform="translate(-164.375 -10.553)"/><path class="o" d="M208.4,106.964c.354-4.167,1.848-7.2,4.915-6.684,3.932.629,6.449,8.651,4.8,10.184-1.652,1.573-3.3-.825-4.443-3.971-.354-.944-.589-.983-.589-.983Zm61.259-16.71c.354-4.167,1.848-7.2,4.915-6.684,3.932.629,6.094,7.549,4.365,9.043-1.259,1.062-2.871.354-4.011-2.792-.354-.944-.59-.983-.59-.983Z" transform="translate(-164.39 -10.506)"/><path class="o" d="M204.179,108.361c.354-4.168,1.848-7.2,4.915-6.684,3.932.629,6.1,7.548,4.365,9.043-1.258,1.061-2.871.354-4.011-2.792-.354-.944-.589-.983-.589-.983Z" transform="translate(-164.377 -10.565)"/><path class="s" d="M217.067,111.147a.778.778,0,0,1-.315-.039c-1.494-.354-2.634-2.988-3.223-4.561l.354-.118c.9,2.516,2,4.089,2.948,4.325a1.261,1.261,0,0,0,1.18-.433c.589-.55.629-2.241.039-4.167-.786-2.6-2.556-5.347-4.718-5.7l.04-.354c2.319.354,4.207,3.263,4.994,5.937.51,1.69.747,3.736-.119,4.561A1.635,1.635,0,0,1,217.067,111.147Z" transform="translate(-164.406 -10.561)"/><path class="s" d="M212.334,111.309a.778.778,0,0,1-.433-.079c-1.022-.275-1.927-1.415-2.594-3.3l.354-.119c.629,1.77,1.454,2.871,2.359,3.107a1.527,1.527,0,0,0,1.375-.354c.629-.551.708-1.967.236-3.617-.629-2.281-2.281-4.758-4.522-5.112l.04-.354c2.359.394,4.128,2.949,4.8,5.347.511,1.848.394,3.382-.354,4.011A2.008,2.008,0,0,1,212.334,111.309Z" transform="translate(-164.393 -10.565)"/><path class="o" d="M272.327,89.782c.944,3.223,3.185,5.9,4.836,4.325s-1.3-9.947-5.19-10.576c-3.067-.472-4.718,2.123-5.072,6.29Z" transform="translate(-164.582 -10.506)"/><path class="o" d="M263.272,91.753c.354-4.167,1.848-7.2,4.915-6.684,3.932.629,6.449,8.651,4.8,10.184s-3.3-.825-4.443-3.971c-.354-.944-.59-.983-.59-.983Z" transform="translate(-164.57 -10.511)"/><g transform="translate(98.427 73.025)"><path class="s" d="M276.118,94.736h-.236a4.213,4.213,0,0,1-2.673-2.4l.315-.2a4.043,4.043,0,0,0,2.437,2.2,1.334,1.334,0,0,0,1.1-.394c.55-.55.55-2.123-.04-4.05-.864-2.752-2.752-6.015-5.032-6.369l1.061.235c1.494.315,3.461,3.224,4.325,6.055.511,1.652.747,3.657-.039,4.443A1.9,1.9,0,0,1,276.118,94.736Z" transform="translate(-263.025 -83.531)"/><path class="s" d="M271.938,95.921a1.071,1.071,0,0,1-.354-.04c-1.494-.354-2.634-2.988-3.224-4.521-.275-.748-.471-.865-.471-.865l.078-.354c.119.039.394.2.748,1.1.9,2.516,1.966,4.05,2.949,4.285a1.317,1.317,0,0,0,1.218-.393c.59-.55.63-2.242.04-4.168-.786-2.594-2.556-5.346-4.719-5.7l.04-.354c2.319.354,4.206,3.264,4.993,5.938.511,1.69.748,3.736-.118,4.561A1.95,1.95,0,0,1,271.938,95.921Z" transform="translate(-263.012 -83.536)"/><path class="s" d="M264.686,91.637l-.118-.354,1.494-.471a2.45,2.45,0,0,0-1.455-4.68l-1.494.472L263,86.251l1.494-.472a2.823,2.823,0,0,1,1.69,5.387Z" transform="translate(-262.996 -83.538)"/></g></g><path class="o" d="M75.184,252.665h-.433v-5.15l1.77,2.713A1.584,1.584,0,0,1,75.184,252.665Z" transform="translate(129.496 3196.69)"/><g transform="translate(422.562 3320.109)"><path class="al" d="M305.537,341.006l-6.173.079-23.276.275a1.72,1.72,0,0,1-1.769-1.69.774.774,0,0,1,.039-.275,1.918,1.918,0,0,1,.236-.669,1.331,1.331,0,0,1,.786-.668l7.47-3.146,1.376-.786,2.124-1.179,2.28-1.3.826-.472,13.918-2.083.669,3.775.079.354.9,5.19.157.825Z" transform="translate(-261.383 -123.687)"/><path class="c" d="M305.691,341.1l-6.291.079-24.574.315a1.369,1.369,0,0,1-.943-.394,1.393,1.393,0,0,1-.394-.983,1.3,1.3,0,0,1,1.14-1.377h.2l23.867-.275,6.37-.079h.157Zm-19.5-5.661-2.2-.983a1.875,1.875,0,0,0-2.163.471l-.59-.511a2.592,2.592,0,0,1,3.028-.629l2.2.983Z" transform="translate(-261.38 -123.701)"/><path class="c" d="M288.582,334.329l-2.2-.983a1.875,1.875,0,0,0-2.163.471l-.59-.51a2.592,2.592,0,0,1,3.028-.63l2.2.984Zm2.358-1.258-2.2-.983a1.874,1.874,0,0,0-2.162.471l-.59-.511a2.592,2.592,0,0,1,3.028-.629l2.2.983Z" transform="translate(-261.413 -123.694)"/><path class="am" d="M381.036,329.005l-22.254-95.112h0a19.329,19.329,0,0,0-36.921-3.617h0l-.039.078a17.533,17.533,0,0,0-.786,2.438l-32.124,98.572,14.587-2.32,35.819-78.991,27.209,81.311Z" transform="translate(-261.43 -123.324)"/><path class="c" d="M305.774,341.1l-6.291.079c0-.039-.039-.039-.039-.079a5.994,5.994,0,0,1-.708-2.673v-.04a5.573,5.573,0,0,1,5.425-5.583l.079.354.9,5.19h.156Z" transform="translate(-261.463 -123.699)"/><path class="al" d="M384.547,341.006l-6.684.079-23.984.275a1.721,1.721,0,0,1-1.77-1.69.757.757,0,0,1,.04-.275,1.92,1.92,0,0,1,.236-.669,1.328,1.328,0,0,1,.786-.668l7.509-3.146,6.605-3.736,13.919-2.083a31.533,31.533,0,0,1,1.494,3.775c.039.118.079.275.118.433a32,32,0,0,1,1.062,4.364l.119.786.118.826Z" transform="translate(-261.637 -123.687)"/><path class="c" d="M384.7,341.1l-6.8.079-25.282.315a1.47,1.47,0,0,1-.983-.394,1.392,1.392,0,0,1-.393-.983,1.3,1.3,0,0,1,1.14-1.377h.2l24.3-.275,7.118-.079h.156Zm-20.721-5.661-2.2-.983a1.875,1.875,0,0,0-2.163.471l-.59-.511a2.592,2.592,0,0,1,3.028-.629l2.2.983Z" transform="translate(-261.635 -123.701)"/><path class="c" d="M366.412,334.329l-2.2-.983a1.875,1.875,0,0,0-2.163.471l-.589-.51a2.591,2.591,0,0,1,3.027-.63l2.2.984Zm2.4-1.258-2.2-.983a1.874,1.874,0,0,0-2.162.471l-.59-.511a2.59,2.59,0,0,1,3.027-.629l2.2.983Zm15.925,8.021-6.8.079c0-.039-.039-.039-.039-.079a5.208,5.208,0,0,1-.944-2.673v-.394a5.269,5.269,0,0,1,5.269-5.269,2.386,2.386,0,0,1,.55.04c.04.118.079.275.119.433a32.268,32.268,0,0,1,1.061,4.364l.118.786h.157Z" transform="translate(-261.668 -123.694)"/><path class="an" d="M336.408,222.385h6.959a12.216,12.216,0,0,0,12.228-12.228V195.57a9.648,9.648,0,0,0-9.633-9.633h-9.829a11.989,11.989,0,0,0-11.993,11.992v12.229A12.25,12.25,0,0,0,336.408,222.385Z" transform="translate(-261.546 -123.219)"/><path class="ao" d="M319.531,201.576a7.509,7.509,0,0,0-8.257-6.684s-20.839,4.128-34.837,1.651c-3.3-.589-6.645-.314-6.763,1.415s5.072.944,4.365,3.618-7.824,2.4-10.734,2.948c-2.91.59-2.792,3.382,1.729,3.617,0,0-3.263,3.461,3.617,3.736a274.972,274.972,0,0,0,45.06-2.2C317.289,208.141,319.964,205.7,319.531,201.576Z" transform="translate(-261.34 -123.248)"/><path class="ap" d="M328.812,188.422l-18.834,6.763.983,16.907,1.534-.236a72.77,72.77,0,0,0,19.266-5.819l.275-.119Z" transform="translate(-261.499 -123.226)"/><path class="aq" d="M347.481,167.723l-4.915-17.458h.079c-2.556-9.4-6.213-16.75-9.083-22.687s-4.6-1.888-4.6-1.888c-1.848-3.971-4.365-3.067-3.853-.275.511,2.831,3.3,9.082,1.18,10.655-2.163,1.573-4.326-2.162-5.82-1.454s-.039,2.909,1.848,5.5,3.421,3.774,5.662,11.638h.039l5.623,19.9a7.194,7.194,0,0,0,13.841-3.932Z" transform="translate(-261.531 -123.012)"/><path class="ar" d="M1.5,14.195a14.307,14.307,0,0,1,.144-2.03L.128,10.027A.68.68,0,0,1,.8,8.966l1.6.262A14.2,14.2,0,1,1,1.5,14.195Z" transform="translate(61.68 34.605)"/><path class="as" d="M18.428,63.621a20.9,20.9,0,0,1-8.256-1.473A12.258,12.258,0,0,1,5.09,58.182a16.259,16.259,0,0,1-2.84-7.687A36.694,36.694,0,0,1,2.4,41.25,107.945,107.945,0,0,1,6.555,23.9c.256-.843.5-1.638.707-2.35a44.174,44.174,0,0,0-6.8,26.7l-.354.04A44.3,44.3,0,0,1,7.022,21.323a5.073,5.073,0,1,0-2.059-8.79,8.5,8.5,0,0,1-.571-7.1A7.3,7.3,0,0,1,9.937.633,34.319,34.319,0,0,1,16.146,0a19.55,19.55,0,0,1,2.6.161,13.534,13.534,0,0,1,7.489,3.764,10.776,10.776,0,0,1,3.244,8.188,20.118,20.118,0,0,1-1.688,7.879A13.9,13.9,0,0,0,31.994,28a26.425,26.425,0,0,0,5.447,3.591l.333.182c.234.132.469.261.716.4.409.225.83.457,1.25.7a23.389,23.389,0,0,1,3.705,2.546A11.075,11.075,0,0,1,46.385,39.2c1.385,3.087,1.051,6.984-1.022,11.914l-.316-.158c2-4.785,2.324-8.566.985-11.559-1.3-2.9-4.147-4.825-6.487-6.173-.435-.256-.872-.5-1.294-.728-.233-.128-.453-.249-.674-.373l-.177-.1a26.521,26.521,0,0,1-5.681-3.72,14.252,14.252,0,0,1-4.206-7.548c-.48,2.06.115,4.253,1.819,6.7a46.144,46.144,0,0,0,5.754,6.282c2.573,2.494,5,4.849,5.99,7.106a13.82,13.82,0,0,1,1.036,6,12.967,12.967,0,0,1-1.884,6.421,9.889,9.889,0,0,1-3.611,3.413,12.786,12.786,0,0,1-5.882,1.467,9.756,9.756,0,0,1-4.4,3.986A18.623,18.623,0,0,1,18.428,63.621Z" transform="translate(62.723 34.406)"/><path class="s" d="M330.6,175.193a2.062,2.062,0,0,1-1.179-.433.224.224,0,0,1,.275-.354,1.608,1.608,0,0,0,1.023.354.761.761,0,0,0,.708-.59.661.661,0,0,0-.157-.51,1.251,1.251,0,0,0-.983-.472l-.354-.039.2-.315c.629-.983,1.376-1.927,2.477-1.887a3.328,3.328,0,0,1,2.32,1.69.224.224,0,1,1-.354.275c-.551-.747-1.219-1.494-2.005-1.533s-1.376.629-1.927,1.415a1.573,1.573,0,0,1,.944.59,1.167,1.167,0,0,1,.235.864,1.185,1.185,0,0,1-1.1.905A.147.147,0,0,1,330.6,175.193Z" transform="translate(-261.563 -123.169)"/></g><path class="m" d="M82.784,127.171a2.27,2.27,0,0,1-.511-.039h0a4.656,4.656,0,0,1-3.146-1.69,4.273,4.273,0,0,1-.9-3.107,4.109,4.109,0,0,1,1.612-2.831,4.57,4.57,0,0,1,3.421-.944,4.737,4.737,0,0,1,3.146,1.69,4.273,4.273,0,0,1,.9,3.107A4.5,4.5,0,0,1,82.784,127.171Zm-.433-1.1a3.34,3.34,0,0,0,3.813-2.832,3.3,3.3,0,0,0-.668-2.319,3.741,3.741,0,0,0-2.4-1.3,3.381,3.381,0,0,0-2.594.708,3.152,3.152,0,0,0-1.18,2.123,3.3,3.3,0,0,0,.669,2.32,3.264,3.264,0,0,0,2.359,1.3Z" transform="translate(129.485 3197.112)"/><path class="n" d="M343.9,51.645a1.929,1.929,0,0,1-1.769-2.084,1.963,1.963,0,0,1,2.2-1.652,1.927,1.927,0,0,1,1.769,2.084,1.961,1.961,0,0,1-2.2,1.652" transform="translate(128.621 3197.343)"/><path class="at" d="M574.184,105.327a2.344,2.344,0,0,1-.55-.079l-3.5-1.219a1.7,1.7,0,0,1-1.179-1.376,1.945,1.945,0,0,1,.629-1.808l2.792-2.4a1.765,1.765,0,0,1,1.73-.354,1.834,1.834,0,0,1,1.179,1.376h0l.708,3.617a1.98,1.98,0,0,1-.629,1.809A1.9,1.9,0,0,1,574.184,105.327Zm-.668-6.251a.816.816,0,0,0-.471.2l-2.792,2.4a.828.828,0,0,0-.275.786.8.8,0,0,0,.471.59l3.5,1.219a.663.663,0,0,0,.668-.157.794.794,0,0,0,.276-.748l-.709-3.617a.8.8,0,0,0-.471-.589A.216.216,0,0,0,573.516,99.075Z" transform="translate(56.064 3183.79)"/><path class="au" d="M16.235,178.052l.708,3.617a1.315,1.315,0,0,1-1.652,1.534l-3.5-1.219a1.342,1.342,0,0,1-.393-2.28l2.792-2.4a1.247,1.247,0,0,1,2.044.748" transform="translate(129.705 3196.92)"/><path class="av" d="M412.51,8.648a2.213,2.213,0,0,1-.511-.04h0a4.646,4.646,0,0,1-3.145-1.69,4.276,4.276,0,0,1-.905-3.106A4.111,4.111,0,0,1,409.562.981a4.567,4.567,0,0,1,3.421-.944,4.731,4.731,0,0,1,3.145,1.69,4.276,4.276,0,0,1,.905,3.106,4.117,4.117,0,0,1-1.494,2.753A4.82,4.82,0,0,1,412.51,8.648Zm-.432-1.1a3.535,3.535,0,0,0,2.713-.786,3.036,3.036,0,0,0,1.1-2.044,3.3,3.3,0,0,0-.669-2.319,3.734,3.734,0,0,0-2.4-1.3,3.378,3.378,0,0,0-2.6.708,3.152,3.152,0,0,0-1.179,2.123,3.3,3.3,0,0,0,.668,2.32,3.267,3.267,0,0,0,2.359,1.3Z" transform="translate(128.405 3197.5)"/><path class="aw" d="M605.021,127.012a1.88,1.88,0,1,1-2.084,1.652,1.893,1.893,0,0,1,2.084-1.652" transform="translate(55.953 3183.696)"/><g transform="matrix(0.978, 0.208, -0.208, 0.978, 224.221, 3443.453)"><g transform="translate(0 0)"><rect class="ae" width="61.4" height="38.73" rx="3" transform="translate(0 0)"/><g transform="translate(9.067 0.436)"><path class="af" d="M0,38.73,18.651,0h14.38L14.38,38.73Z" transform="translate(0 0)"/><path class="af" d="M0,38.73,18.651,0h14.38L14.38,38.73Z" transform="translate(9.693 0)"/></g></g><g transform="translate(0 30.607)"><line class="ax" x2="61.257" transform="translate(0.143 0)"/><line class="ay" x2="11.293" transform="translate(0 0)"/></g><ellipse class="ai" cx="2.726" cy="2.761" rx="2.726" ry="2.761" transform="translate(8.659 27.956)"/><ellipse class="aj" cx="9.13" cy="9.247" rx="9.13" ry="9.247" transform="translate(21.184 8.678)"/><path class="ak" d="M0,.734V5.857a.73.73,0,0,0,1.1.668l4.4-2.6a.71.71,0,0,0,0-1.262L1.1.066A.781.781,0,0,0,0,.734Z" transform="translate(28.368 14.544)"/></g><g transform="translate(174.835 3459.703)"><path class="az" d="M88.479,277.918v-3.5H99.056a1.745,1.745,0,0,1,1.729,1.73h0a1.745,1.745,0,0,1-1.729,1.73l-10.577.039Z" transform="translate(-45.384 -263.101)"/><path class="ba" d="M89.652,267.823h0a5.39,5.39,0,0,0-8.218-.156L64.016,287.562a7.157,7.157,0,0,0,.668,10.1h0a7.157,7.157,0,0,0,10.1-.668l15.885-18.205A7.618,7.618,0,0,0,89.652,267.823Z" transform="translate(-45.298 -263.073)"/><path class="bb" d="M48.036,264.551h0a7.139,7.139,0,0,1,10.026,1.3l10.97,15.924,10.813-12.739,10.891,10.184-15.06,17.85c-3.3,3.461-6.763,3.972-9.987,1.652h0A6.439,6.439,0,0,1,64,296.99l-.039-.04L46.7,274.577A7.19,7.19,0,0,1,48.036,264.551Z" transform="translate(-45.243 -263.063)"/><path class="bc" d="M90.333,274.88v-3.5H100.91a1.745,1.745,0,0,1,1.729,1.729h0a1.745,1.745,0,0,1-1.729,1.73l-10.577.04Z" transform="translate(-45.39 -263.091)"/><path class="bd" d="M88.913,271.843v-3.46H99.49a1.745,1.745,0,0,1,1.729,1.729h0a1.745,1.745,0,0,1-1.729,1.73Z" transform="translate(-45.385 -263.081)"/></g></g></svg>